<svg xmlns="http://www.w3.org/2000/svg" viewBox="0 0 64 64" width="64" height="64">
  <!-- Deepforage bark grain (neutral luminance, vertical streaks) — tinted per-function by Palette.TRUNK/TRUNK_DARK in MaterialLib.gd. Deterministic seed=2102. -->
  <rect x="0" y="0" width="64" height="64" fill="#FFFFFF"/>
  <rect x="8" y="0" width="8" height="8" fill="#DEDEDE"/>
  <rect x="8" y="8" width="8" height="8" fill="#DEDEDE"/>
  <rect x="8" y="24" width="8" height="8" fill="#DEDEDE"/>
  <rect x="8" y="32" width="8" height="8" fill="#DEDEDE"/>
  <rect x="8" y="48" width="8" height="8" fill="#DEDEDE"/>
  <rect x="8" y="56" width="8" height="8" fill="#DEDEDE"/>
  <rect x="16" y="0" width="8" height="8" fill="#C4C4C4"/>
  <rect x="16" y="8" width="8" height="8" fill="#C4C4C4"/>
  <rect x="16" y="16" width="8" height="8" fill="#C4C4C4"/>
  <rect x="16" y="24" width="8" height="8" fill="#C4C4C4"/>
  <rect x="16" y="32" width="8" height="8" fill="#C4C4C4"/>
  <rect x="16" y="40" width="8" height="8" fill="#C4C4C4"/>
  <rect x="16" y="48" width="8" height="8" fill="#C4C4C4"/>
  <rect x="16" y="56" width="8" height="8" fill="#C4C4C4"/>
  <rect x="24" y="0" width="8" height="8" fill="#DEDEDE"/>
  <rect x="24" y="8" width="8" height="8" fill="#DEDEDE"/>
  <rect x="24" y="16" width="8" height="8" fill="#DEDEDE"/>
  <rect x="24" y="32" width="8" height="8" fill="#DEDEDE"/>
  <rect x="24" y="40" width="8" height="8" fill="#DEDEDE"/>
  <rect x="24" y="48" width="8" height="8" fill="#DEDEDE"/>
  <rect x="24" y="56" width="8" height="8" fill="#DEDEDE"/>
  <rect x="32" y="0" width="8" height="8" fill="#C4C4C4"/>
  <rect x="32" y="8" width="8" height="8" fill="#C4C4C4"/>
  <rect x="32" y="16" width="8" height="8" fill="#C4C4C4"/>
  <rect x="32" y="24" width="8" height="8" fill="#C4C4C4"/>
  <rect x="32" y="32" width="8" height="8" fill="#C4C4C4"/>
  <rect x="32" y="40" width="8" height="8" fill="#C4C4C4"/>
  <rect x="32" y="48" width="8" height="8" fill="#C4C4C4"/>
  <rect x="32" y="56" width="8" height="8" fill="#C4C4C4"/>
  <rect x="40" y="0" width="8" height="8" fill="#DEDEDE"/>
  <rect x="40" y="8" width="8" height="8" fill="#DEDEDE"/>
  <rect x="40" y="24" width="8" height="8" fill="#DEDEDE"/>
  <rect x="40" y="32" width="8" height="8" fill="#DEDEDE"/>
  <rect x="40" y="40" width="8" height="8" fill="#DEDEDE"/>
  <rect x="40" y="48" width="8" height="8" fill="#DEDEDE"/>
  <rect x="40" y="56" width="8" height="8" fill="#DEDEDE"/>
  <rect x="48" y="0" width="8" height="8" fill="#DEDEDE"/>
  <rect x="48" y="8" width="8" height="8" fill="#C4C4C4"/>
  <rect x="48" y="16" width="8" height="8" fill="#C4C4C4"/>
  <rect x="48" y="24" width="8" height="8" fill="#C4C4C4"/>
  <rect x="48" y="32" width="8" height="8" fill="#C4C4C4"/>
  <rect x="48" y="40" width="8" height="8" fill="#C4C4C4"/>
  <rect x="48" y="48" width="8" height="8" fill="#C4C4C4"/>
  <rect x="48" y="56" width="8" height="8" fill="#C4C4C4"/>
  <rect x="56" y="0" width="8" height="8" fill="#DEDEDE"/>
  <rect x="56" y="8" width="8" height="8" fill="#DEDEDE"/>
  <rect x="56" y="16" width="8" height="8" fill="#DEDEDE"/>
  <rect x="56" y="24" width="8" height="8" fill="#DEDEDE"/>
  <rect x="56" y="32" width="8" height="8" fill="#DEDEDE"/>
  <rect x="56" y="40" width="8" height="8" fill="#DEDEDE"/>
  <rect x="56" y="48" width="8" height="8" fill="#DEDEDE"/>
  <rect x="56" y="56" width="8" height="8" fill="#DEDEDE"/>
</svg>
