<svg xmlns="http://www.w3.org/2000/svg" viewBox="0 0 64 64" width="64" height="64">
  <!-- Deepforage foliage mottle (neutral luminance) — tinted per-function by Palette.FOLIAGE/FOLIAGE_DEEP in MaterialLib.gd. Deterministic seed=2103. -->
  <rect x="0" y="0" width="64" height="64" fill="#FFFFFF"/>
  <rect x="8" y="0" width="8" height="8" fill="#E4E4E4"/>
  <rect x="16" y="0" width="8" height="8" fill="#F0F0F0"/>
  <rect x="32" y="0" width="8" height="8" fill="#E4E4E4"/>
  <rect x="40" y="0" width="8" height="8" fill="#F0F0F0"/>
  <rect x="48" y="0" width="8" height="8" fill="#F0F0F0"/>
  <rect x="56" y="0" width="8" height="8" fill="#E4E4E4"/>
  <rect x="0" y="8" width="8" height="8" fill="#F0F0F0"/>
  <rect x="8" y="8" width="8" height="8" fill="#E4E4E4"/>
  <rect x="16" y="8" width="8" height="8" fill="#D6D6D6"/>
  <rect x="24" y="8" width="8" height="8" fill="#F0F0F0"/>
  <rect x="32" y="8" width="8" height="8" fill="#F0F0F0"/>
  <rect x="56" y="8" width="8" height="8" fill="#F0F0F0"/>
  <rect x="0" y="16" width="8" height="8" fill="#E4E4E4"/>
  <rect x="8" y="16" width="8" height="8" fill="#F0F0F0"/>
  <rect x="16" y="16" width="8" height="8" fill="#E4E4E4"/>
  <rect x="32" y="16" width="8" height="8" fill="#D6D6D6"/>
  <rect x="40" y="16" width="8" height="8" fill="#F0F0F0"/>
  <rect x="48" y="16" width="8" height="8" fill="#F0F0F0"/>
  <rect x="56" y="16" width="8" height="8" fill="#F0F0F0"/>
  <rect x="8" y="24" width="8" height="8" fill="#E4E4E4"/>
  <rect x="16" y="24" width="8" height="8" fill="#E4E4E4"/>
  <rect x="24" y="24" width="8" height="8" fill="#F0F0F0"/>
  <rect x="40" y="24" width="8" height="8" fill="#F0F0F0"/>
  <rect x="56" y="24" width="8" height="8" fill="#F0F0F0"/>
  <rect x="0" y="32" width="8" height="8" fill="#F0F0F0"/>
  <rect x="16" y="32" width="8" height="8" fill="#D6D6D6"/>
  <rect x="24" y="32" width="8" height="8" fill="#F0F0F0"/>
  <rect x="32" y="32" width="8" height="8" fill="#F0F0F0"/>
  <rect x="40" y="32" width="8" height="8" fill="#F0F0F0"/>
  <rect x="56" y="32" width="8" height="8" fill="#F0F0F0"/>
  <rect x="8" y="40" width="8" height="8" fill="#D6D6D6"/>
  <rect x="16" y="40" width="8" height="8" fill="#E4E4E4"/>
  <rect x="24" y="40" width="8" height="8" fill="#F0F0F0"/>
  <rect x="40" y="40" width="8" height="8" fill="#F0F0F0"/>
  <rect x="56" y="40" width="8" height="8" fill="#E4E4E4"/>
  <rect x="0" y="48" width="8" height="8" fill="#E4E4E4"/>
  <rect x="16" y="48" width="8" height="8" fill="#F0F0F0"/>
  <rect x="40" y="48" width="8" height="8" fill="#E4E4E4"/>
  <rect x="48" y="48" width="8" height="8" fill="#F0F0F0"/>
  <rect x="0" y="56" width="8" height="8" fill="#D6D6D6"/>
  <rect x="8" y="56" width="8" height="8" fill="#F0F0F0"/>
  <rect x="24" y="56" width="8" height="8" fill="#F0F0F0"/>
  <rect x="48" y="56" width="8" height="8" fill="#E4E4E4"/>
</svg>
