<svg xmlns="http://www.w3.org/2000/svg" viewBox="0 0 64 64" width="64" height="64">
  <!-- Deepforage creature-coat mottle (neutral luminance) -- tinted per-species by
       whatever Palette token the caller's shared _body_mat.albedo_color already
       holds (e.g. Palette.ASH_GREY, Palette.STONE_LIT). Grayscale so
       albedo_color*texture reproduces the intended coat tone with subtle mottle
       variation instead of double-darkening it (the same bug class fixed in
       stone_64/bark_64/foliage_64/water_ripple_64). Deterministic seed=2106. -->
  <rect x="0" y="0" width="64" height="64" fill="#FFFFFF"/>
  <rect x="8" y="0" width="8" height="8" fill="#F0F0F0"/>
  <rect x="16" y="0" width="8" height="8" fill="#F0F0F0"/>
  <rect x="24" y="0" width="8" height="8" fill="#DEDEDE"/>
  <rect x="40" y="0" width="8" height="8" fill="#CCCCCC"/>
  <rect x="48" y="0" width="8" height="8" fill="#CCCCCC"/>
  <rect x="8" y="8" width="8" height="8" fill="#CCCCCC"/>
  <rect x="24" y="8" width="8" height="8" fill="#F0F0F0"/>
  <rect x="32" y="8" width="8" height="8" fill="#DEDEDE"/>
  <rect x="40" y="8" width="8" height="8" fill="#F0F0F0"/>
  <rect x="48" y="8" width="8" height="8" fill="#DEDEDE"/>
  <rect x="56" y="8" width="8" height="8" fill="#CCCCCC"/>
  <rect x="0" y="16" width="8" height="8" fill="#F0F0F0"/>
  <rect x="8" y="16" width="8" height="8" fill="#F0F0F0"/>
  <rect x="16" y="16" width="8" height="8" fill="#F0F0F0"/>
  <rect x="32" y="16" width="8" height="8" fill="#DEDEDE"/>
  <rect x="40" y="16" width="8" height="8" fill="#F0F0F0"/>
  <rect x="48" y="16" width="8" height="8" fill="#F0F0F0"/>
  <rect x="32" y="24" width="8" height="8" fill="#F0F0F0"/>
  <rect x="40" y="24" width="8" height="8" fill="#DEDEDE"/>
  <rect x="56" y="24" width="8" height="8" fill="#F0F0F0"/>
  <rect x="0" y="32" width="8" height="8" fill="#DEDEDE"/>
  <rect x="8" y="32" width="8" height="8" fill="#DEDEDE"/>
  <rect x="40" y="32" width="8" height="8" fill="#CCCCCC"/>
  <rect x="48" y="32" width="8" height="8" fill="#DEDEDE"/>
  <rect x="56" y="32" width="8" height="8" fill="#F0F0F0"/>
  <rect x="8" y="40" width="8" height="8" fill="#F0F0F0"/>
  <rect x="24" y="40" width="8" height="8" fill="#F0F0F0"/>
  <rect x="32" y="40" width="8" height="8" fill="#DEDEDE"/>
  <rect x="40" y="40" width="8" height="8" fill="#F0F0F0"/>
  <rect x="56" y="40" width="8" height="8" fill="#CCCCCC"/>
  <rect x="0" y="48" width="8" height="8" fill="#CCCCCC"/>
  <rect x="24" y="48" width="8" height="8" fill="#CCCCCC"/>
  <rect x="32" y="48" width="8" height="8" fill="#DEDEDE"/>
  <rect x="48" y="48" width="8" height="8" fill="#DEDEDE"/>
  <rect x="56" y="48" width="8" height="8" fill="#F0F0F0"/>
  <rect x="0" y="56" width="8" height="8" fill="#CCCCCC"/>
  <rect x="8" y="56" width="8" height="8" fill="#DEDEDE"/>
  <rect x="24" y="56" width="8" height="8" fill="#F0F0F0"/>
  <rect x="40" y="56" width="8" height="8" fill="#DEDEDE"/>
  <rect x="56" y="56" width="8" height="8" fill="#F0F0F0"/>
</svg>
