<svg xmlns="http://www.w3.org/2000/svg" viewBox="0 0 64 64" width="64" height="64">
  <!-- Deepforage stone mottle (neutral luminance) — tinted per-function by Palette.STONE/STONE_LIT/STONE_DARK/WALL/RIDGE/GROUND in MaterialLib.gd. Grayscale so albedo_color*texture reproduces the intended tone instead of double-darkening it. Deterministic seed=2101. -->
  <rect x="0" y="0" width="64" height="64" fill="#FFFFFF"/>
  <rect x="8" y="0" width="8" height="8" fill="#DEDEDE"/>
  <rect x="16" y="0" width="8" height="8" fill="#CCCCCC"/>
  <rect x="32" y="0" width="8" height="8" fill="#DEDEDE"/>
  <rect x="48" y="0" width="8" height="8" fill="#F0F0F0"/>
  <rect x="56" y="0" width="8" height="8" fill="#F0F0F0"/>
  <rect x="0" y="8" width="8" height="8" fill="#CCCCCC"/>
  <rect x="8" y="8" width="8" height="8" fill="#F0F0F0"/>
  <rect x="16" y="8" width="8" height="8" fill="#F0F0F0"/>
  <rect x="24" y="8" width="8" height="8" fill="#F0F0F0"/>
  <rect x="32" y="8" width="8" height="8" fill="#F0F0F0"/>
  <rect x="48" y="8" width="8" height="8" fill="#DEDEDE"/>
  <rect x="0" y="16" width="8" height="8" fill="#DEDEDE"/>
  <rect x="16" y="16" width="8" height="8" fill="#F0F0F0"/>
  <rect x="24" y="16" width="8" height="8" fill="#CCCCCC"/>
  <rect x="56" y="16" width="8" height="8" fill="#F0F0F0"/>
  <rect x="0" y="24" width="8" height="8" fill="#F0F0F0"/>
  <rect x="8" y="24" width="8" height="8" fill="#F0F0F0"/>
  <rect x="16" y="24" width="8" height="8" fill="#F0F0F0"/>
  <rect x="24" y="24" width="8" height="8" fill="#F0F0F0"/>
  <rect x="56" y="24" width="8" height="8" fill="#CCCCCC"/>
  <rect x="16" y="32" width="8" height="8" fill="#CCCCCC"/>
  <rect x="24" y="32" width="8" height="8" fill="#CCCCCC"/>
  <rect x="32" y="32" width="8" height="8" fill="#CCCCCC"/>
  <rect x="40" y="32" width="8" height="8" fill="#CCCCCC"/>
  <rect x="56" y="32" width="8" height="8" fill="#F0F0F0"/>
  <rect x="0" y="40" width="8" height="8" fill="#F0F0F0"/>
  <rect x="16" y="40" width="8" height="8" fill="#CCCCCC"/>
  <rect x="24" y="40" width="8" height="8" fill="#DEDEDE"/>
  <rect x="32" y="40" width="8" height="8" fill="#F0F0F0"/>
  <rect x="40" y="40" width="8" height="8" fill="#F0F0F0"/>
  <rect x="56" y="40" width="8" height="8" fill="#CCCCCC"/>
  <rect x="0" y="48" width="8" height="8" fill="#CCCCCC"/>
  <rect x="8" y="48" width="8" height="8" fill="#F0F0F0"/>
  <rect x="16" y="48" width="8" height="8" fill="#CCCCCC"/>
  <rect x="24" y="48" width="8" height="8" fill="#F0F0F0"/>
  <rect x="32" y="48" width="8" height="8" fill="#DEDEDE"/>
  <rect x="40" y="48" width="8" height="8" fill="#CCCCCC"/>
  <rect x="48" y="48" width="8" height="8" fill="#DEDEDE"/>
  <rect x="56" y="48" width="8" height="8" fill="#F0F0F0"/>
  <rect x="0" y="56" width="8" height="8" fill="#F0F0F0"/>
  <rect x="8" y="56" width="8" height="8" fill="#DEDEDE"/>
  <rect x="24" y="56" width="8" height="8" fill="#F0F0F0"/>
  <rect x="32" y="56" width="8" height="8" fill="#DEDEDE"/>
  <rect x="56" y="56" width="8" height="8" fill="#F0F0F0"/>
</svg>
